<mxfile host="app.diagrams.net" agent="Mozilla/5.0 (Windows NT 10.0; Win64; x64) AppleWebKit/537.36 (KHTML, like Gecko) Chrome/130.0.0.0 Safari/537.36" version="24.7.16">
  <diagram name="Side-1" id="_BrDP2RHozFmgSqzX7Dk">
    <mxGraphModel dx="1050" dy="569" grid="1" gridSize="10" guides="1" tooltips="1" connect="1" arrows="1" fold="1" page="1" pageScale="1" pageWidth="1169" pageHeight="1654" math="0" shadow="0">
      <root>
        <mxCell id="0" />
        <mxCell id="1" parent="0" />
        <mxCell id="HodwBL71TnCD-5lT6Fzp-16" value="" style="rounded=1;whiteSpace=wrap;html=1;fillColor=none;strokeColor=#999999;dashed=1;strokeWidth=4;" vertex="1" parent="1">
          <mxGeometry x="280" y="180" width="570" height="150" as="geometry" />
        </mxCell>
        <mxCell id="HodwBL71TnCD-5lT6Fzp-5" value="" style="edgeStyle=orthogonalEdgeStyle;rounded=0;orthogonalLoop=1;jettySize=auto;html=1;" edge="1" parent="1" source="HodwBL71TnCD-5lT6Fzp-1" target="HodwBL71TnCD-5lT6Fzp-2">
          <mxGeometry relative="1" as="geometry" />
        </mxCell>
        <mxCell id="HodwBL71TnCD-5lT6Fzp-1" value="Data Acqusition" style="rounded=0;whiteSpace=wrap;html=1;" vertex="1" parent="1">
          <mxGeometry x="80" y="230" width="120" height="60" as="geometry" />
        </mxCell>
        <mxCell id="HodwBL71TnCD-5lT6Fzp-6" value="" style="edgeStyle=orthogonalEdgeStyle;rounded=0;orthogonalLoop=1;jettySize=auto;html=1;" edge="1" parent="1" source="HodwBL71TnCD-5lT6Fzp-2" target="HodwBL71TnCD-5lT6Fzp-3">
          <mxGeometry relative="1" as="geometry" />
        </mxCell>
        <mxCell id="HodwBL71TnCD-5lT6Fzp-2" value="Pre-processing" style="rounded=0;whiteSpace=wrap;html=1;" vertex="1" parent="1">
          <mxGeometry x="310" y="230" width="120" height="60" as="geometry" />
        </mxCell>
        <mxCell id="HodwBL71TnCD-5lT6Fzp-7" value="" style="edgeStyle=orthogonalEdgeStyle;rounded=0;orthogonalLoop=1;jettySize=auto;html=1;" edge="1" parent="1" source="HodwBL71TnCD-5lT6Fzp-3" target="HodwBL71TnCD-5lT6Fzp-4">
          <mxGeometry relative="1" as="geometry" />
        </mxCell>
        <mxCell id="HodwBL71TnCD-5lT6Fzp-3" value="NF-FF Transform" style="rounded=0;whiteSpace=wrap;html=1;" vertex="1" parent="1">
          <mxGeometry x="510" y="230" width="120" height="60" as="geometry" />
        </mxCell>
        <mxCell id="HodwBL71TnCD-5lT6Fzp-13" value="" style="edgeStyle=orthogonalEdgeStyle;rounded=0;orthogonalLoop=1;jettySize=auto;html=1;" edge="1" parent="1" source="HodwBL71TnCD-5lT6Fzp-4">
          <mxGeometry relative="1" as="geometry">
            <mxPoint x="930" y="260" as="targetPoint" />
          </mxGeometry>
        </mxCell>
        <mxCell id="HodwBL71TnCD-5lT6Fzp-4" value="Post-processing" style="rounded=0;whiteSpace=wrap;html=1;" vertex="1" parent="1">
          <mxGeometry x="710" y="230" width="120" height="60" as="geometry" />
        </mxCell>
        <mxCell id="HodwBL71TnCD-5lT6Fzp-8" value="Near Field&lt;div&gt;Data&lt;/div&gt;" style="text;html=1;align=center;verticalAlign=middle;whiteSpace=wrap;rounded=0;" vertex="1" parent="1">
          <mxGeometry x="210" y="220" width="60" height="30" as="geometry" />
        </mxCell>
        <mxCell id="HodwBL71TnCD-5lT6Fzp-9" value="Near Field&lt;div&gt;Data&lt;/div&gt;" style="text;html=1;align=center;verticalAlign=middle;whiteSpace=wrap;rounded=0;" vertex="1" parent="1">
          <mxGeometry x="440" y="220" width="60" height="30" as="geometry" />
        </mxCell>
        <mxCell id="HodwBL71TnCD-5lT6Fzp-11" value="Estimated Far Field&lt;div&gt;Data&lt;/div&gt;" style="text;html=1;align=center;verticalAlign=middle;whiteSpace=wrap;rounded=0;" vertex="1" parent="1">
          <mxGeometry x="640" y="220" width="60" height="30" as="geometry" />
        </mxCell>
        <mxCell id="HodwBL71TnCD-5lT6Fzp-15" value="Output" style="text;html=1;align=center;verticalAlign=middle;whiteSpace=wrap;rounded=0;" vertex="1" parent="1">
          <mxGeometry x="850" y="230" width="60" height="30" as="geometry" />
        </mxCell>
        <mxCell id="HodwBL71TnCD-5lT6Fzp-18" value="Program" style="text;html=1;align=center;verticalAlign=middle;whiteSpace=wrap;rounded=0;fontSize=16;fontColor=#999999;" vertex="1" parent="1">
          <mxGeometry x="355" y="140" width="430" height="30" as="geometry" />
        </mxCell>
        <mxCell id="HodwBL71TnCD-5lT6Fzp-19" value="Either simulated&lt;div&gt;or real world&lt;/div&gt;" style="text;html=1;align=center;verticalAlign=middle;whiteSpace=wrap;rounded=0;" vertex="1" parent="1">
          <mxGeometry x="85" y="190" width="110" height="30" as="geometry" />
        </mxCell>
      </root>
    </mxGraphModel>
  </diagram>
</mxfile>
